HIERARCHY
ROOT Hips
{
	OFFSET 0.000000 0.000000 0.000000
	CHANNELS 6 Xposition Yposition Zposition Zrotation Yrotation Xrotation 
	JOINT LeftUpLeg_virtual
	{
		OFFSET 0.000000 0.000000 0.000000
		CHANNELS 3 Zrotation Yrotation Xrotation
		JOINT LeftUpLeg
		{
			OFFSET 8.479694 -4.795517 -0.379053
			CHANNELS 3 Zrotation Yrotation Xrotation
			JOINT LeftLeg
			{
				OFFSET 0.485052 -32.551468 0.112863
				CHANNELS 3 Zrotation Yrotation Xrotation
				JOINT LeftFoot
				{
					OFFSET 0.438033 -32.635670 -3.012641
					CHANNELS 3 Zrotation Yrotation Xrotation
					JOINT LeftToeBase
					{
						OFFSET 0.970169 -13.225353 11.864223
						CHANNELS 3 Zrotation Yrotation Xrotation
						End Site
						{
							OFFSET 0.000000 0.000000 0.000000
						}
					}
				}
			}
		}
	}
	JOINT RightUpLeg_virtual
	{
		OFFSET 0.000000 0.000000 0.000000
		CHANNELS 3 Zrotation Yrotation Xrotation
		JOINT RightUpLeg
		{
			OFFSET -8.479694 -4.795517 -0.379053
			CHANNELS 3 Zrotation Yrotation Xrotation
			JOINT RightLeg
			{
				OFFSET -0.484100 -32.551483 0.112903
				CHANNELS 3 Zrotation Yrotation Xrotation
				JOINT RightFoot
				{
					OFFSET -0.438985 -32.635651 -3.012681
					CHANNELS 3 Zrotation Yrotation Xrotation
					JOINT RightToeBase
					{
						OFFSET -0.970169 -13.225354 11.864223
						CHANNELS 3 Zrotation Yrotation Xrotation
						End Site
						{
							OFFSET 0.000000 0.000000 0.000000
						}
					}
				}
			}
		}
	}
	JOINT Spine_virtual
	{
		OFFSET 0.000000 0.000000 0.000000
		CHANNELS 3 Zrotation Yrotation Xrotation
		JOINT Spine
		{
			OFFSET 0.000000 7.722015 1.166203
			CHANNELS 3 Zrotation Yrotation Xrotation
			JOINT Spine1
			{
				OFFSET 0.000000 12.024086 0.248766
				CHANNELS 3 Zrotation Yrotation Xrotation
				JOINT Spine2
				{
					OFFSET -0.000000 11.503036 -0.491240
					CHANNELS 3 Zrotation Yrotation Xrotation
					JOINT Neck_virtual
					{
						OFFSET 0.000000 0.000000 0.000000
						CHANNELS 3 Zrotation Yrotation Xrotation
						JOINT Neck
						{
							OFFSET 0.000000 18.430687 -3.123054
							CHANNELS 3 Zrotation Yrotation Xrotation
							JOINT Head
							{
								OFFSET -0.000000 9.051071 1.034021
								CHANNELS 3 Zrotation Yrotation Xrotation
								End Site
								{
									OFFSET 0.000000 0.000000 0.000000
								}
							}
						}
					}
					JOINT LeftShoulder_virtual
					{
						OFFSET 0.000000 0.000000 0.000000
						CHANNELS 3 Zrotation Yrotation Xrotation
						JOINT LeftShoulder
						{
							OFFSET 6.197824 13.665230 -4.064723
							CHANNELS 3 Zrotation Yrotation Xrotation
							JOINT LeftArm
							{
								OFFSET 7.778132 -0.187073 -1.709282
								CHANNELS 3 Zrotation Yrotation Xrotation
								JOINT LeftForeArm
								{
									OFFSET 21.954697 0.000000 -2.041093
									CHANNELS 3 Zrotation Yrotation Xrotation
									JOINT LeftHand
									{
										OFFSET 22.992908 0.000000 -0.870901
										CHANNELS 3 Zrotation Yrotation Xrotation
										End Site
										{
											OFFSET 0.000000 0.000000 0.000000
										}
									}
								}
							}
						}
					}
					JOINT RightShoulder_virtual
					{
						OFFSET 0.000000 0.000000 0.000000
						CHANNELS 3 Zrotation Yrotation Xrotation
						JOINT RightShoulder
						{
							OFFSET -6.197824 13.665230 -4.064723
							CHANNELS 3 Zrotation Yrotation Xrotation
							JOINT RightArm
							{
								OFFSET -7.778132 -0.187073 -1.709282
								CHANNELS 3 Zrotation Yrotation Xrotation
								JOINT RightForeArm
								{
									OFFSET -21.954697 0.000000 -2.041093
									CHANNELS 3 Zrotation Yrotation Xrotation
									JOINT RightHand
									{
										OFFSET -22.992908 0.000000 -0.870901
										CHANNELS 3 Zrotation Yrotation Xrotation
										End Site
										{
											OFFSET 0.000000 0.000000 0.000000
										}
									}
								}
							}
						}
					}
				}
			}
		}
	}
}
MOTION
Frames: 9
Frame Time: 0.033333
-8.189098 65.242905 2.414616 178.495082 0.116851 179.743928 -5.475338 -8.916538 15.387745 -8.712293 3.264794 -83.760399 8.631845 -0.595173 99.842968 -0.023018 -11.511395 -9.423239 0.000000 0.000000 0.000000 1.893452 -6.973235 14.381177 3.188146 0.532377 -77.378564 0.339511 -1.357482 74.551706 4.455235 3.705698 -8.220883 0.000000 0.000000 0.000000 -3.415024 -5.331959 32.460010 -4.964451 2.194010 15.235437 2.950433 -3.023907 -0.611836 0.023353 -0.281157 -0.047277 3.567914 -2.806724 2.142225 1.771676 5.760894 -29.304541 0.000000 0.000000 0.000000 4.216998 -2.073102 -1.639882 -2.617610 -4.691159 2.462522 -75.108339 -48.913157 46.600414 -16.144776 -76.406471 23.279484 0.000000 0.000000 0.000000 1.517978 -1.022586 -2.209397 25.521265 20.020102 9.058700 50.139155 40.176976 26.917758 -2.262441 67.774546 -3.019998 0.000000 0.000000 0.000000 
-8.144478 65.211967 2.459906 178.467693 0.295900 179.744829 -5.446660 -8.844817 15.345277 -8.735048 3.320747 -83.750926 8.639380 -0.640772 99.875937 -0.106970 -11.515068 -9.513922 0.000000 0.000000 0.000000 1.919750 -6.858175 14.345525 3.283301 0.450121 -77.406889 0.342313 -1.374838 74.598882 4.382438 3.691551 -8.219295 0.000000 0.000000 0.000000 -3.637571 -5.314061 32.428785 -5.020164 2.094773 15.214798 3.047102 -2.919605 -0.618318 0.082027 -0.236404 -0.033653 3.572024 -3.003162 2.072011 1.891509 5.408410 -29.262719 0.000000 0.000000 0.000000 4.160898 -1.976727 -1.667716 -2.759028 -4.543600 2.428993 -75.135134 -48.841037 46.778361 -15.845523 -76.196771 22.677285 0.000000 0.000000 0.000000 1.468251 -0.884696 -2.194026 25.422659 19.951411 9.252313 50.157590 40.271635 26.693484 -2.266154 67.705049 -3.056653 0.000000 0.000000 0.000000 
-8.096782 65.177551 2.497508 178.481012 0.354781 179.729652 -5.419311 -8.758521 15.363450 -8.785109 3.373866 -83.793157 8.649531 -0.711587 99.896387 -0.195805 -11.547291 -9.619904 0.000000 0.000000 0.000000 1.939926 -6.706121 14.399456 3.403756 0.345488 -77.512094 0.333274 -1.391535 74.652574 4.272181 3.649822 -8.227887 0.000000 0.000000 0.000000 -3.582958 -5.151012 32.456939 -4.903629 2.214850 15.189340 2.966944 -2.969453 -0.654626 0.050842 -0.268987 -0.035958 3.529164 -2.950317 2.014895 1.973621 5.281415 -29.202105 0.000000 0.000000 0.000000 4.182628 -2.166913 -1.672768 -2.676308 -4.384547 2.606080 -75.015954 -48.858109 46.326622 -16.093792 -75.907553 22.706245 0.000000 0.000000 0.000000 1.455590 -1.002542 -2.226287 25.432529 19.847604 9.181314 50.228460 40.145799 26.837533 -2.553678 67.673473 -3.373083 0.000000 0.000000 0.000000 
-8.071534 65.154793 2.492065 178.481668 0.434478 179.737999 -5.379483 -8.698934 15.395837 -8.888380 3.442779 -83.855605 8.673621 -0.772881 99.924554 -0.266453 -11.573871 -9.675945 0.000000 0.000000 0.000000 1.958653 -6.597966 14.454847 3.504098 0.259799 -77.651908 0.324381 -1.411680 74.727419 4.159086 3.617682 -8.225493 0.000000 0.000000 0.000000 -3.562767 -5.029915 32.390673 -4.771365 2.301215 15.159555 2.945880 -3.008268 -0.661712 0.075700 -0.322458 -0.014698 3.490286 -2.906251 1.961081 2.099939 5.130994 -29.130921 0.000000 0.000000 0.000000 4.183128 -2.185626 -1.734806 -2.709218 -4.156627 2.612368 -74.930167 -48.682914 46.016429 -15.731719 -75.455422 22.057034 0.000000 0.000000 0.000000 1.436959 -0.978975 -2.301951 25.504944 19.729044 9.436153 50.087543 40.175511 26.797520 -2.725699 67.641023 -3.555796 0.000000 0.000000 0.000000 
-8.112033 65.145500 2.446114 178.481435 0.501452 179.740553 -5.375971 -8.768945 15.375155 -8.976748 3.470327 -83.831754 8.716234 -0.829843 99.970665 -0.262778 -11.530967 -9.697056 0.000000 0.000000 0.000000 1.948137 -6.567496 14.453899 3.701572 0.019190 -77.700614 0.324081 -1.407169 74.847597 4.054807 3.618792 -8.238388 0.000000 0.000000 0.000000 -3.609615 -5.091207 32.200855 -4.594705 2.333642 15.151532 2.886593 -3.044664 -0.663110 0.047958 -0.316771 -0.030698 3.418432 -2.910596 2.004771 2.192521 4.916402 -29.008165 0.000000 0.000000 0.000000 4.088608 -2.015617 -1.611776 -2.632230 -4.039356 2.719472 -74.937052 -48.764095 45.569113 -15.580288 -74.752008 21.559492 0.000000 0.000000 0.000000 1.377499 -1.009306 -2.247123 25.642270 19.705798 9.613317 49.868000 40.254133 26.891904 -2.955069 67.510724 -3.768920 0.000000 0.000000 0.000000 
-8.198683 65.144547 2.349001 178.474701 0.648857 179.723341 -5.347209 -8.890441 15.258030 -9.035493 3.448605 -83.713182 8.788170 -0.846591 100.078520 -0.186223 -11.406881 -9.600122 0.000000 0.000000 0.000000 1.908755 -6.645711 14.379602 3.741301 -0.049696 -77.643541 0.339904 -1.427784 74.980205 3.989980 3.676722 -8.234258 0.000000 0.000000 0.000000 -3.605204 -5.091522 31.814635 -4.346727 2.359149 15.144968 2.848176 -3.145346 -0.585531 0.052958 -0.451965 0.023735 3.374352 -2.910899 2.005936 2.304792 4.788036 -28.842455 0.000000 0.000000 0.000000 4.054192 -2.003893 -1.627856 -2.550789 -3.888760 2.879965 -74.975444 -48.823630 45.309894 -13.761902 -73.868400 19.421672 0.000000 0.000000 0.000000 1.341445 -0.870501 -2.132145 25.831195 19.727012 9.759248 49.523017 40.322596 26.891877 -3.323768 67.374987 -4.142752 0.000000 0.000000 0.000000 
-8.281167 65.147118 2.212717 178.466860 0.813347 179.728792 -5.308683 -8.937256 15.029369 -9.110263 3.449024 -83.583723 8.855660 -0.851011 100.217720 -0.111149 -11.271167 -9.440521 0.000000 0.000000 0.000000 1.868492 -6.683624 14.220654 3.783664 -0.083593 -77.508085 0.362660 -1.426318 75.144607 3.908405 3.734389 -8.273988 0.000000 0.000000 0.000000 -3.782889 -5.209128 31.282704 -4.120201 2.372287 15.108022 2.865770 -2.930771 -0.458808 0.071576 -0.231057 -0.000588 3.273528 -3.011966 2.109582 2.297200 4.584653 -28.639215 0.000000 0.000000 0.000000 3.974400 -2.247270 -1.618321 -2.492522 -3.886005 3.036384 -74.902928 -48.922422 44.900031 -12.908031 -72.483306 18.262211 0.000000 0.000000 0.000000 1.212032 -1.021298 -2.209504 26.173241 19.533957 9.966160 49.200072 40.311517 26.995355 -3.283657 66.896690 -4.090176 0.000000 0.000000 0.000000 
-8.328465 65.135178 2.054388 178.506407 0.896040 179.747534 -5.301738 -8.792981 14.786632 -9.168148 3.485184 -83.444674 8.871174 -0.885925 100.411383 -0.131766 -11.195805 -9.245451 0.000000 0.000000 0.000000 1.821627 -6.526277 14.100523 3.865639 -0.092115 -77.355492 0.376981 -1.399259 75.363303 3.772755 3.755934 -8.395732 0.000000 0.000000 0.000000 -3.598191 -4.839652 30.627927 -3.815048 2.280500 14.952628 2.763948 -3.150541 -0.321481 0.011400 -0.382108 0.001955 3.316831 -3.123576 2.238733 2.484814 4.460199 -28.300066 0.000000 0.000000 0.000000 4.001296 -2.170599 -1.512512 -2.152935 -3.914647 3.124296 -74.978094 -48.913744 44.604349 -12.121778 -70.924937 17.253551 0.000000 0.000000 0.000000 1.282906 -0.986318 -2.074888 26.609278 19.608512 10.272516 48.796757 40.226006 27.025281 -3.316431 66.358184 -4.094717 0.000000 0.000000 0.000000 
-8.332158 65.096466 1.866197 178.542770 0.952696 179.818964 -5.291181 -8.357113 14.677185 -9.240983 3.566192 -83.380251 8.870820 -0.830520 100.638828 -0.308184 -11.241613 -9.056180 0.000000 0.000000 0.000000 1.794248 -6.117072 14.053871 3.968188 -0.049524 -77.306396 0.365375 -1.339673 75.665628 3.568474 3.713811 -8.652736 0.000000 0.000000 0.000000 -3.543426 -4.362682 29.923622 -3.506649 2.349840 14.617833 2.785781 -3.155634 -0.214213 0.030864 -0.292460 -0.028376 3.250093 -3.142902 2.397739 2.392270 4.383563 -27.968930 0.000000 0.000000 0.000000 3.943142 -2.312432 -1.272728 -1.809464 -4.140072 3.323154 -74.567552 -48.798399 44.394502 -11.214208 -69.401982 16.204325 0.000000 0.000000 0.000000 1.255460 -1.242435 -1.950181 27.129759 19.577047 10.467854 48.708343 39.961982 27.301992 -3.315013 65.585259 -4.090555 0.000000 0.000000 0.000000 
